<?xml version="1.0" encoding="iso-8859-1"?>
<!-- Uploaded to: SVG Repo, www.svgrepo.com, Generator: SVG Repo Mixer Tools -->
<svg fill="#000000" height="800px" width="800px" version="1.1" id="Layer_1" xmlns="http://www.w3.org/2000/svg" xmlns:xlink="http://www.w3.org/1999/xlink" 
	 viewBox="0 0 512.002 512.002" xml:space="preserve">
<g>
	<g>
		<g>
			<path d="M366.934,247.467c9.412,0,17.067-7.654,17.067-17.067c0-9.412-7.654-17.067-17.067-17.067
				c-9.412,0-17.067,7.654-17.067,17.067C349.868,239.812,357.522,247.467,366.934,247.467z"/>
			<path d="M256.001,0c-112.922,0-204.8,91.878-204.8,204.8v298.667c0,3.447,2.082,6.562,5.265,7.885
				c1.058,0.435,2.167,0.648,3.268,0.648c2.219,0,4.403-0.87,6.033-2.5l45.167-45.167l45.167,45.167
				c3.337,3.337,8.73,3.337,12.066,0l45.167-45.167l45.167,45.167c3.337,3.337,8.73,3.337,12.066,0l45.167-45.167l45.167,45.167
				c3.336,3.337,8.73,3.337,12.066,0l51.2-51.2c3.337-3.336,3.337-8.73,0-12.066c-3.336-3.337-8.73-3.337-12.066,0l-45.167,45.167
				l-45.167-45.167c-3.337-3.337-8.73-3.337-12.066,0l-45.167,45.167l-45.167-45.167c-3.337-3.337-8.73-3.337-12.066,0
				l-45.167,45.167l-45.167-45.167c-3.337-3.337-8.73-3.337-12.066,0l-36.634,36.634V204.8
				c0-103.518,84.215-187.733,187.733-187.733S443.734,101.282,443.734,204.8v298.667c0,4.71,3.814,8.533,8.533,8.533
				s8.533-3.823,8.533-8.533V204.8C460.801,91.878,368.923,0,256.001,0z"/>
			<path d="M213.334,170.667c-32.939,0-59.733,26.795-59.733,59.733s26.795,59.733,59.733,59.733s59.733-26.795,59.733-59.733
				S246.273,170.667,213.334,170.667z M213.334,273.067c-23.526,0-42.667-19.14-42.667-42.667c0-23.526,19.14-42.667,42.667-42.667
				c23.526,0,42.667,19.14,42.667,42.667C256.001,253.926,236.861,273.067,213.334,273.067z"/>
			<path d="M230.401,213.333c-9.412,0-17.067,7.654-17.067,17.067c0,9.412,7.654,17.067,17.067,17.067
				c9.412,0,17.067-7.654,17.067-17.067C247.468,220.988,239.813,213.333,230.401,213.333z"/>
			<path d="M290.134,230.4c0,32.939,26.803,59.733,59.733,59.733c32.93,0,59.733-26.795,59.733-59.733s-26.803-59.733-59.733-59.733
				C316.938,170.667,290.134,197.461,290.134,230.4z M392.534,230.4c0,23.526-19.14,42.667-42.667,42.667
				c-23.526,0-42.667-19.14-42.667-42.667c0-23.526,19.14-42.667,42.667-42.667C373.394,187.733,392.534,206.874,392.534,230.4z"/>
		</g>
	</g>
</g>
</svg>